<svg viewBox="0 0 400 70" xmlns="http://www.w3.org/2000/svg" class="main-logo">
    <defs>
        <linearGradient id="SvgjsLinearGradient2141">
            <stop stop-color="#ef4136" offset="0">
            </stop>
            <stop stop-color="#fbb040" offset="1">
            </stop>
        </linearGradient>
        <linearGradient id="SvgjsLinearGradient2144">
            <stop stop-color="#ef4136" offset="0">
            </stop>
            <stop stop-color="#fbb040" offset="1">
            </stop>
        </linearGradient>
    </defs>
    <g class="logo-el" fill="url(#SvgjsLinearGradient2141)" transform="matrix(0.6350471461098753,0,0,0.6350471461098753,16.033194646908818,14.746255716056936)">
        <polygon class="laptop" xmlns="http://www.w3.org/2000/svg" points="24.115,87.73 48.001,87.728 71.886,87.728 72.321,85.417 65.659,85.447 66.098,81.101 73.056,80.949 76.131,55.761   47.999,55.761 47.213,55.761 19.869,55.761 22.944,80.949 29.902,81.101 30.341,85.447 23.679,85.417 ">
        </polygon>
        <path xmlns="http://www.w3.org/2000/svg" d="M7.63,83.594c0.951,1.397,2.393,2.449,4.375,3.188l9.898,0.949h0.686l-0.72-3.823l6.813,0.032l-0.138-1.368l-6.93-0.151  l-3.439-28.159h29.081h0.744h29.827L74.387,82.42l-6.93,0.151l-0.138,1.368l6.813-0.032l-0.72,3.82h0.757l9.826-0.945  c2.6-0.97,4.277-2.473,5.125-4.594c2.189-5.473-1.835-13.609-3.998-17.979c-0.547-1.106-0.979-1.979-1.186-2.558  c-0.397-1.112-0.671-2.503-0.961-3.975c-0.669-3.396-1.428-7.246-3.91-9.232c-2.969-2.375-17.009-4.164-22.39-4.676  c-2.617,1.305-5.556,2.058-8.674,2.058s-6.057-0.753-8.674-2.059c-5.38,0.513-19.422,2.302-22.392,4.677  c-2.482,1.986-3.241,5.836-3.91,9.232c-0.29,1.472-0.564,2.863-0.961,3.975c-0.207,0.579-0.639,1.453-1.187,2.559  c-0.952,1.923-2.263,4.577-3.248,7.411c-1.253,3.605-1.976,7.504-0.75,10.569C7.082,82.692,7.333,83.159,7.63,83.594z">
        </path>
        <path xmlns="http://www.w3.org/2000/svg" d="M37.122,40.639c3.028,2.303,6.791,3.687,10.879,3.687s7.852-1.384,10.879-3.687c4.333-3.295,7.147-8.488,7.147-14.339  c0-0.382-0.034-0.756-0.058-1.132c-0.589-9.412-8.411-16.895-17.969-16.895s-17.38,7.482-17.97,16.895  c-0.023,0.376-0.057,0.75-0.057,1.132C29.974,32.15,32.789,37.343,37.122,40.639z">
        </path>
    </g>
    <g class="logo-el" fill="url(#SvgjsLinearGradient2141)" transform="matrix(2.1031848681877325,0,0,2.1031848681877325,91.52776999054257,17.885654677857847)">
        <path d="M5.5 5.76 c2.18 0 3.78 1.44 4.38 2.94 l-1.26 0.68 c-0.64 -1.28
         -1.66 -2.12 -3.12 -2.12 c-1.54 0 -2.6 0.88 -2.6 2.1 c0 1.14 0.72 1.86
         2.24 2.44 l1.02 0.38 c2.52 0.94 4.1 2.02 4.1 4.24 c0 2.4 -2.3 3.88
         -4.68 3.88 s-4.34 -1.44 -4.88 -3.44 l1.34 -0.64 c0.48 1.48 1.74 2.56
         3.54 2.56 c1.6 0 2.96 -0.92 2.96 -2.34 c0 -1.6 -1.12 -2.2 -2.78 -2.84
          l-1.04 -0.4 c-2.12 -0.8 -3.48 -1.9 -3.48 -3.88 c0 -2.04 1.8 -3.56 4.26
          -3.56 z M21.32 20 l-5.42 -6.54 l-2.04 2.22 l0 4.32 l-1.7 0 l0 -14 l1.7
          0 l0 7.5 l6.82 -7.5 l2.08 0 l-5.82 6.34 l6.34 7.66 l-1.96 0 z M26.64 6
          l0 14 l-1.66 0 l0 -14 l1.66 0 z M30.700000000000003 18.44 l6.28 0 l0 1.56
           l-7.94 0 l0 -14 l1.66 0 l0 12.44 z M40.64 18.44 l6.28 0 l0 1.56 l-7.94
            0 l0 -14 l1.66 0 l0 12.44 z M53.22 5.76 c2.18 0 3.78 1.44 4.38 2.94
            l-1.26 0.68 c-0.64 -1.28 -1.66 -2.12 -3.12 -2.12 c-1.54 0 -2.6 0.88
            -2.6 2.1 c0 1.14 0.72 1.86 2.24 2.44 l1.02 0.38 c2.52 0.94 4.1 2.02
            4.1 4.24 c0 2.4 -2.3 3.88 -4.68 3.88 s-4.34 -1.44 -4.88 -3.44 l1.34
            -0.64 c0.48 1.48 1.74 2.56 3.54 2.56 c1.6 0 2.96 -0.92 2.96 -2.34
            c0 -1.6 -1.12 -2.2 -2.78 -2.84 l-1.04 -0.4 c-2.12 -0.8 -3.48 -1.9
            -3.48 -3.88 c0 -2.04 1.8 -3.56 4.26 -3.56 z M67.54 18.44 l6.28 0 l0
             1.56 l-7.94 0 l0 -14 l1.66 0 l0 12.44 z M77.48 6 l0 14 l-1.66 0 l0
              -14 l1.66 0 z M86.62 12.3 c1.84 0.42 3.04 1.94 3.04 3.7 c0 2.46
               -1.6 4 -5.06 4 l-4.72 0 l0 -14 l4.78 0 c2.74 0 4.1 1.56 4.1 3.38
                c0 1.34 -0.76 2.42 -2.14 2.92 z M84.54 7.48 l-3 0 l0 4.28 l3 0
                c1.6 0 2.58 -0.88 2.58 -2.16 c0 -1.32 -0.92 -2.12 -2.58 -2.12 z
                M84.54 18.52 c2.4 0 3.46 -0.98 3.46 -2.66 c0 -1.46 -1.06 -2.72
                -3.36 -2.72 l-3.1 0 l0 5.38 l3 0 z M101.84000000000002 20 l-1.8 0 l-3.54
                -5.04 l-0.38 0 l-2.9 0 l0 5.04 l-1.66 0 l0 -14 l4.56 0 c3.14 0 4.96 1.92
                4.96 4.52 c0 2 -1.08 3.56 -3 4.16 z M93.22000000000001 7.5600000000000005
                l0 5.92 l2.86 0 c2.02 0 3.34 -1.04 3.34 -2.96 c0 -1.94 -1.32 -2.96 -3.34
                 -2.96 l-2.86 0 z M114.96000000000001 20 l-1.44 -3.3 l-7.48 0 l-1.44 3.3
                 l-1.76 0 l6.24 -14 l1.38 0 l6.26 14 l-1.76 0 z M106.66000000000001 15.3
                 l6.24 0 l-3.12 -7.12 z M128.6 20 l-1.8 0 l-3.54 -5.04 l-0.38 0 l-2.9 0
                 l0 5.04 l-1.66 0 l0 -14 l4.56 0 c3.14 0 4.96 1.92 4.96 4.52 c0 2 -1.08
                 3.56 -3 4.16 z M119.98 7.5600000000000005 l0 5.92 l2.86 0 c2.02 0 3.34
                 -1.04 3.34 -2.96 c0 -1.94 -1.32 -2.96 -3.34 -2.96 l-2.86 0 z M141.9 6
                 l-5.22 7.54 l0 6.46 l-1.66 0 l0 -6.46 l-5.22 -7.54 l1.9 0 l4.14 6.02 l4.16
                 -6.02 l1.9 0 z">
    </path>
    </g>
</svg>