<svg viewBox="0 0 369.969696969697 50.4595810969043" xmlns="http://www.w3.org/2000/svg" class="logo-main-page">
    <defs>
        <linearGradient id="SvgjsLinearGradient2141">
            <stop stop-color="#ef4136" offset="0">
            </stop>
            <stop stop-color="#fbb040" offset="1">
            </stop>
        </linearGradient>
        <linearGradient id="SvgjsLinearGradient2144">
            <stop stop-color="#ef4136" offset="0">
            </stop>
            <stop stop-color="#fbb040" offset="1">
            </stop>
        </linearGradient>
    </defs>
    <g transform="matrix(0.6350471461098753,0,0,0.6350471461098753,-3.9668053530911807,-5.253744283943064)"
       fill="url(#SvgjsLinearGradient2141)"
    >
        <polygon xmlns="http://www.w3.org/2000/svg"
                 points="24.115,87.73 48.001,87.728 71.886,87.728 72.321,85.417 65.659,85.447 66.098,81.101
                 73.056,80.949 76.131,55.761   47.999,55.761 47.213,55.761 19.869,55.761 22.944,80.949 29.902,81.101 30.341,85.447 23.679,85.417 ">
        </polygon>
        <path xmlns="http://www.w3.org/2000/svg"
              d="M7.63,83.594c0.951,1.397,2.393,2.449,4.375,3.188l9.898,0.949h0.686l-0.72-3.823l6.813,0.032l-0.138-1.368l-6.93-0.151
             l-3.439-28.159h29.081h0.744h29.827L74.387,82.42l-6.93,0.151l-0.138,1.368l6.813-0.032l-0.72,3.82h0.757l9.826-0.945
             c2.6-0.97,4.277-2.473,5.125-4.594c2.189-5.473-1.835-13.609-3.998-17.979c-0.547-1.106-0.979-1.979-1.186-2.558
             c-0.397-1.112-0.671-2.503-0.961-3.975c-0.669-3.396-1.428-7.246-3.91-9.232c-2.969-2.375-17.009-4.164-22.39-4.676
             c-2.617,1.305-5.556,2.058-8.674,2.058s-6.057-0.753-8.674-2.059c-5.38,0.513-19.422,2.302-22.392,4.677
             c-2.482,1.986-3.241,5.836-3.91,9.232c-0.29,1.472-0.564,2.863-0.961,3.975c-0.207,0.579-0.639,1.453-1.187,2.559
             c-0.952,1.923-2.263,4.577-3.248,7.411c-1.253,3.605-1.976,7.504-0.75,10.569C7.082,82.692,7.333,83.159,7.63,83.594z">
        </path>
        <path xmlns="http://www.w3.org/2000/svg" d="M37.122,40.639c3.028,2.303,6.791,3.687,10.879,3.687s7.852-1.384,10.879-3.687c4.333-3.295,7.147-8.488,7.147-14.339
        c0-0.382-0.034-0.756-0.058-1.132c-0.589-9.412-8.411-16.895-17.969-16.895s-17.38,7.482-17.97,16.895
         c-0.023,0.376-0.057,0.75-0.057,1.132C29.974,32.15,32.789,37.343,37.122,40.639z">
        </path>
    </g>
    <g transform="matrix(1.1329148539622937,0,0,1.1329148539622937,71.86708514603771,-3.968020961555231)"
       fill="url(#SvgjsLinearGradient2144)">
        <path d="M9.666 22.667 c4.7508 0.036797 8.6072 3.908 8.6072 8.666 c0 4.7764 -3.8859 8.666 -8.666 8.666 c-3.5658 0
        -6.7196 -2.138 -8.044 -5.4536 l0.6918 -0.32016 l0.091992 -0.036797 c1.1812 3.0028 4.0332 4.9456 7.2568 4.9456 c4.3016
        0 7.8012 -3.4995 7.8012 -7.8012 s-3.4995 -7.8012 -7.8012 -7.8012 l0 -0.011055 c-1.8546 -0.033125 -3.356 -1.5492 -3.356
         -3.4149 c0 -1.8841 1.5345 -3.4186 3.4186 -3.4186 c1.3946 0 2.5943 0.82796 3.1242 2.0276 l-0.78384 0.3643 c-0.39375
         -0.90156 -1.2916 -1.5272 -2.3404 -1.5272 c-1.4057 0 -2.5538 1.1481 -2.5538 2.5575 s1.1444 2.5575 2.5538 2.5575
         z M5.7988 20.109 c0 2.1343 1.7368 3.8676 3.8674 3.8712 c4.0296 0.033125 7.2936 3.3192 7.2936 7.3524 c0 4.0552
         -3.3008 7.356 -7.356 7.356 c-3.0322 0 -5.7552 -1.8804 -6.852 -4.6956 l0.78384 -0.3643 c0.95676 2.5134 3.3744 4.1952
          6.068 4.1952 c3.5805 0 6.4912 -2.9108 6.4912 -6.4912 s-2.9108 -6.4912 -6.4912 -6.4912 l0 -0.0036719 c-2.5796 -0.033125
         -4.6696 -2.1417 -4.6696 -4.7288 c0 -2.609 2.1233 -4.7324 4.7324 -4.7324 c1.8804 0 3.5547 1.126 4.3092 2.7893 l-0.78384
            0.3643 c-0.61084 -1.3616 -1.9871 -2.2889 -3.5253 -2.2889 c-2.1343 0 -3.8676 1.7332 -3.8676 3.8676 z M15.164 17.618
            l-0.78384 0.36797 c-0.82796 -1.8252 -2.6753 -3.0506 -4.714 -3.0506 c-2.8556 0 -5.1776 2.322 -5.1776 5.1776 s2.322
            5.1776 5.1776 5.1776 c3.3008 0.033125 5.9796 2.7268 5.9796 6.0388 c0 3.3303 -2.7084 6.0424 -6.0424 6.0424 c-2.517 0
            -4.784 -1.6008 -5.656 -3.9374 l0.78752 -0.3643 c0.7286 2.035 2.69 3.437 4.8684 3.437 c2.8556 0 5.1776 -2.322 5.1776
            -5.1776 s-2.322 -5.1776 -5.1776 -5.1776 l0 -0.0036719 c-3.3008 -0.033125 -5.9796 -2.7268 -5.9796 -6.0388 c0 -3.3303
            2.7084 -6.0424 6.0424 -6.0424 c2.3772 0 4.53 1.4278 5.4976 3.551 z M16.36 17.066 l-0.78752 0.36062 c-1.0451 -2.2999
            -3.356 -3.8087 -5.91 -3.8087 c-3.5805 0 -6.4912 2.9108 -6.4912 6.4912 s2.9108 6.4912 6.4912 6.4912 l0 0.0036719
            c2.5796 0.033125 4.6696 2.1417 4.6696 4.7288 c0 2.609 -2.1233 4.7324 -4.7324 4.7324 c-2.0202 0 -3.8086 -1.3064
            -4.4636 -3.1794 l0.78752 -0.3643 c0.51148 1.575 1.9982 2.6789 3.6798 2.6789 c2.1343 0 3.8676 -1.7332 3.8676
            -3.8676 s-1.7332 -3.8676 -3.8676 -3.8676 c-4.0296 -0.033125 -7.2936 -3.3192 -7.2936 -7.3524 c0 -4.0552 3.3008
            -7.356 7.356 -7.356 c2.8924 0 5.5052 1.7075 6.6936 4.3092 z M9.6036 28.775 c-4.7472 -0.033125 -8.6036 -3.908
            -8.6036 -8.6624 c0 -4.78 3.8859 -8.666 8.666 -8.666 c3.4296 0 6.4692 1.9761 7.8788 5.0708 l-0.78384 0.3643 c-1.2696
            -2.7893 -4.0076 -4.5704 -7.0948 -4.5704 c-4.3016 0 -7.8012 3.4995 -7.8012 7.8012 s3.4995 7.8012 7.8012 7.8012 l0
            0.0036719 c1.8546 0.033125 3.356 1.5492 3.356 3.4149 c0 1.8841 -1.5308 3.4186 -3.4186 3.4186 c-1.5419 0 -2.8409
            -1.012 -3.2677 -2.4213 l0.79116 -0.36797 c0.27969 1.115 1.2806 1.9246 2.4766 1.9246 c1.4094 0 2.5575 -1.1444
                 2.5575 -2.5538 s-1.1481 -2.5575 -2.5575 -2.5575 z M21.1448 39.9987891 l-0.86476 0 l0 -27.915 l0.86476 0 l0 27.915
                 z M22.480600000000003 39.9987891 l-0.86476 0 l0 -27.915 l0.86476 0 l0 27.915 z M23.812800000000003 39.9987891
                 l-0.86476 0 l0 -27.915 l0.86476 0 l0 27.915 z M25.148400000000002 39.9987891 l-0.86476 0 l0 -27.915 l0.86476
                 0 l0 27.915 z M44.368 12.082999999999998 l-11.006 14.745 l10.572 13.17 l-1.1077 0 l-13.45 -16.751 l-0.2907 0.38637
                 l13.137 16.364 l-1.1077 0 l-12.563 -15.647 l-0.28703 0.38637 l12.246 15.26 l-1.1077 0 l-11.676 -14.546 l-0.28703
                 0.39008 l11.363 14.156 l-1.1077 0 l-10.793 -13.439 l-0.28703 0.38637 l10.476 13.052 l-1.1077 0 l-9.5052 -11.842
                 l0 11.842 l-0.86476 0 l0 -27.915 l0.86476 0 l0 13.601 l10.153 -13.601 l1.0782 0 l-7.8012 10.447 l0.30543 0.37902
                 l8.0808 -10.826 l1.0782 0 l-8.6 11.522 l0.30176 0.37902 l8.8832 -11.901 l1.0819 0 l-9.4056 12.596 l0.30176 0.37535
                 l9.6892 -12.972 l1.0782 0 l-10.208 13.671 l0.30543 0.37902 l10.488 -14.05 l1.0782 0 z M47.26480000000001 39.9987891
                 l-0.86476 0 l0 -27.956 l0.86476 0 l0 27.956 z M48.60060000000001 39.9987891 l-0.86476 0 l0 -27.956 l0.86476 0 l0
                 27.956 z M49.93280000000001 39.9987891 l-0.86476 0 l0 -27.956 l0.86476 0 l0 27.956 z M51.26840000000001 39.9987891
                 l-0.86476 0 l0 -27.956 l0.86476 0 l0 27.956 z M52.60040000000001 39.9987891 l-0.86476 0 l0 -27.956 l0.86476 0 l0
                 27.956 z M55.50840000000001 39.9987891 l-0.86476 0 l0 -27.956 l0.86476 0 l0 27.956 z M56.84060000000001 39.9987891
                 l-0.86476 0 l0 -27.956 l0.86476 0 l0 27.956 z M58.17280000000001 39.9987891 l-0.86476 0 l0 -27.956 l0.86476 0
                 l0 27.956 z M59.50840000000001 39.9987891 l-0.86476 0 l0 -27.956 l0.86476 0 l0 27.956 z M71.796 34.6556 l-10.955
                 0.000039062 l0 0.47102 l10.955 0 l0 0.86109 l-10.955 0 l0 0.47102 l10.955 0 l0 0.86476 l-10.955 0 l0 0.46734
                 l10.955 0 l0 0.86476 l-10.955 0 l0 0.47102 l10.955 0 l0 0.86476 l-10.955 0 l0 0.0073438 l-0.86476 0 l0 -27.956
                 l0.86476 0 l0 21.748 l10.955 0 l0 0.86476 z M74.6684 39.9987891 l-0.86476 0 l0 -27.956 l0.86476 0 l0 27.956
                 z M76.0006 39.9987891 l-0.86476 0 l0 -27.956 l0.86476 0 l0 27.956 z M77.3328 39.9987891 l-0.86476 0 l0 -27.956
                 l0.86476 0 l0 27.956 z M78.6684 39.9987891 l-0.86476 0 l0 -27.956 l0.86476 0 l0 27.956 z M90.95600000000002
                 34.6556 l-10.955 0.000039062 l0 0.47102 l10.955 0 l0 0.86109 l-10.955 0 l0 0.47102 l10.955 0 l0 0.86476 l-10.955
                 0 l0 0.46734 l10.955 0 l0 0.86476 l-10.955 0 l0 0.47102 l10.955 0 l0 0.86476 l-10.955 0 l0 0.0073438 l-0.86476
                 0 l0 -27.956 l0.86476 0 l0 21.748 l10.955 0 l0 0.86476 z M101.626 22.667 c4.7508 0.036797 8.6072 3.908 8.6072
                 8.666 c0 4.7764 -3.8859 8.666 -8.666 8.666 c-3.5658 0 -6.7196 -2.138 -8.044 -5.4536 l0.6918 -0.32016 l0.091992
                 -0.036797 c1.1812 3.0028 4.0332 4.9456 7.2568 4.9456 c4.3016 0 7.8012 -3.4995 7.8012 -7.8012 s-3.4995 -7.8012
                 -7.8012 -7.8012 l0 -0.011055 c-1.8546 -0.033125 -3.356 -1.5492 -3.356 -3.4149 c0 -1.8841 1.5345 -3.4186 3.4186
                 -3.4186 c1.3946 0 2.5943 0.82796 3.1242 2.0276 l-0.78384 0.3643 c-0.39375 -0.90156 -1.2916 -1.5272 -2.3404 -1.5272
                 c-1.4057 0 -2.5538 1.1481 -2.5538 2.5575 s1.1444 2.5575 2.5538 2.5575 z M97.75880000000001 20.109 c0 2.1343 1.7368
                 3.8676 3.8674 3.8712 c4.0296 0.033125 7.2936 3.3192 7.2936 7.3524 c0 4.0552 -3.3008 7.356 -7.356 7.356 c-3.0322 0
                 -5.7552 -1.8804 -6.852 -4.6956 l0.78384 -0.3643 c0.95676 2.5134 3.3744 4.1952 6.068 4.1952 c3.5805 0 6.4912 -2.9108
                 6.4912 -6.4912 s-2.9108 -6.4912 -6.4912 -6.4912 l0 -0.0036719 c-2.5796 -0.033125 -4.6696 -2.1417 -4.6696 -4.7288
                 c0 -2.609 2.1233 -4.7324 4.7324 -4.7324 c1.8804 0 3.5547 1.126 4.3092 2.7893 l-0.78384 0.3643 c-0.61084 -1.3616
                 -1.9871 -2.2889 -3.5253 -2.2889 c-2.1343 0 -3.8676 1.7332 -3.8676 3.8676 z M107.12400000000001 17.618 l-0.78384
                 0.36797 c-0.82796 -1.8252 -2.6753 -3.0506 -4.714 -3.0506 c-2.8556 0 -5.1776 2.322 -5.1776 5.1776 s2.322 5.1776
                 5.1776 5.1776 c3.3008 0.033125 5.9796 2.7268 5.9796 6.0388 c0 3.3303 -2.7084 6.0424 -6.0424 6.0424 c-2.517 0
                 -4.784 -1.6008 -5.656 -3.9374 l0.78752 -0.3643 c0.7286 2.035 2.69 3.437 4.8684 3.437 c2.8556 0 5.1776 -2.322 5.1776
                 -5.1776 s-2.322 -5.1776 -5.1776 -5.1776 l0 -0.0036719 c-3.3008 -0.033125 -5.9796 -2.7268 -5.9796 -6.0388 c0
                 -3.3303 2.7084 -6.0424 6.0424 -6.0424 c2.3772 0 4.53 1.4278 5.4976 3.551 z M108.32000000000001 17.066 l-0.78752
                 0.36062 c-1.0451 -2.2999 -3.356 -3.8087 -5.91 -3.8087 c-3.5805 0 -6.4912 2.9108 -6.4912 6.4912 s2.9108 6.4912
                 6.4912 6.4912 l0 0.0036719 c2.5796 0.033125 4.6696 2.1417 4.6696 4.7288 c0 2.609 -2.1233 4.7324 -4.7324 4.7324
                 c-2.0202 0 -3.8086 -1.3064 -4.4636 -3.1794 l0.78752 -0.3643 c0.51148 1.575 1.9982 2.6789 3.6798 2.6789 c2.1343
                 0 3.8676 -1.7332 3.8676 -3.8676 s-1.7332 -3.8676 -3.8676 -3.8676 c-4.0296 -0.033125 -7.2936 -3.3192 -7.2936
                 -7.3524 c0 -4.0552 3.3008 -7.356 7.356 -7.356 c2.8924 0 5.5052 1.7075 6.6936 4.3092 z M101.56360000000001
                 28.775 c-4.7472 -0.033125 -8.6036 -3.908 -8.6036 -8.6624 c0 -4.78 3.8859 -8.666 8.666 -8.666 c3.4296 0 6.4692
                 1.9761 7.8788 5.0708 l-0.78384 0.3643 c-1.2696 -2.7893 -4.0076 -4.5704 -7.0948 -4.5704 c-4.3016 0
                 -7.8012 3.4995 -7.8012 7.8012 s3.4995 7.8012 7.8012 7.8012 l0 0.0036719 c1.8546 0.033125 3.356 1.5492
                 3.356 3.4149 c0 1.8841 -1.5308 3.4186 -3.4186 3.4186 c-1.5419 0 -2.8409 -1.012 -3.2677 -2.4213 l0.79116
                 -0.36797 c0.27969 1.115 1.2806 1.9246 2.4766 1.9246 c1.4094 0 2.5575 -1.1444 2.5575 -2.5538 s-1.1481 -2.5575
                 -2.5575 -2.5575 z M123.3884 39.9987891 l-0.86476 0 l0 -27.956 l0.86476 0 l0 27.956 z M124.7206 39.9987891
                 l-0.86476 0 l0 -27.956 l0.86476 0 l0 27.956 z M126.0528 39.9987891 l-0.86476 0 l0 -27.956 l0.86476 0 l0 27.956
                 z M127.3884 39.9987891 l-0.86476 0 l0 -27.956 l0.86476 0 l0 27.956 z M139.67600000000002 34.6556 l-10.955
                 0.000039062 l0 0.47102 l10.955 0 l0 0.86109 l-10.955 0 l0 0.47102 l10.955 0 l0 0.86476 l-10.955 0 l0 0.46734
                 l10.955 0 l0 0.86476 l-10.955 0 l0 0.47102 l10.955 0 l0 0.86476 l-10.955 0 l0 0.0073438 l-0.86476 0 l0
                 -27.956 l0.86476 0 l0 21.748 l10.955 0 l0 0.86476 z M142.5448 39.9987891 l-0.86476 0 l0 -27.956 l0.86476 0
                 l0 27.956 z M143.88060000000002 39.9987891 l-0.86476 0 l0 -27.956 l0.86476 0 l0 27.956 z M145.21280000000002
                 39.9987891 l-0.86476 0 l0 -27.956 l0.86476 0 l0 27.956 z M146.54840000000002 39.9987891 l-0.86476 0 l0 -27.956
                 l0.86476 0 l0 27.956 z M147.8804 39.9987891 l-0.86476 0 l0 -27.956 l0.86476 0 l0 27.956 z M150.78480000000002
                 39.9987891 l-0.86476 0 l0 -27.971 l0.86476 0 l0 27.971 z M152.0764 39.9987891 l-0.86476 0 l0 -27.971 l0.86476
                 0 l0 27.971 z M153.37560000000002 39.9987891 l-0.86476 0 l0 -27.971 l0.86476 0 l0 27.971 z M154.6672 39.9987891
                 l-0.86476 0 l0 -27.971 l0.86476 0 l0 27.971 z M166.39100000000002 21.165 c0 1.7295 -0.48208 3.4039 -1.4057
                 4.8612 c0.91996 1.4499 1.4057 3.1242 1.4057 4.8612 c0 5.0232 -4.0884 9.1112 -9.1112 9.1112 l-2.1821 0 l0
                 -27.971 l0.86476 0 l0 0.025742 l1.3174 0 c5.0232 0 9.1112 4.0884 9.1112 9.1112 z M155.9624 18.096 l0 6.138
                 l1.3174 0 c1.6927 0 3.069 -1.3762 3.069 -3.069 s-1.3762 -3.069 -3.069 -3.069 l-1.3174 0 z M155.9624 25.099
                 l-0.000039062 0.4306 l1.3174 0 c2.4066 0 4.3644 -1.9577 4.3644 -4.3644 s-1.9577 -4.3644 -4.3644 -4.3644
                 l-1.3174 0 l0 0.43055 l1.3174 0 c2.1711 0 3.9338 1.7663 3.9338 3.9338 c0 2.1711 -1.7663 3.9338 -3.9338 3.9338
                 l-1.3174 0 z M155.9624 27.817999999999998 l0 6.138 l1.3174 0 c1.6927 0 3.069 -1.3762 3.069 -3.069 c0 -0.43056
                 -0.08832 -0.84268 -0.25758 -1.2328 c-0.4894 -1.115 -1.5934 -1.8362 -2.8114 -1.8362 l-1.3174 0 z M157.27960000000002
                 34.8212 l-1.3211 0 l0 0.43055 l1.3174 0 c2.4066 0 4.3644 -1.9577 4.3644 -4.3644 c0 -0.6256 -0.12879 -1.2291 -0.3827
                 -1.7921 c-0.70652 -1.564 -2.2668 -2.5722 -3.9779 -2.5722 l-1.3174 0 l0 0.43055 l1.3174 0 c1.5603 0 2.977 0.92364
                 3.6026 2.3551 c0.22078 0.4968 0.33117 1.0304 0.33117 1.5787 c0 2.1711 -1.7663 3.9338 -3.9338 3.9338 z M155.9624
                 36.1166 l-0.000078124 0.43048 l1.3174 0 c3.1205 0 5.6596 -2.5391 5.6596 -5.6596 c0 -0.88684 -0.19871 -1.7369
                 -0.59612 -2.528 c-0.39008 -0.77644 -0.96416 -1.4609 -1.6559 -1.9871 l-0.45628 -0.3459 l0.45628 -0.3459 c1.4315
                 -1.0819 2.2521 -2.7268 2.2521 -4.5152 c0 -3.1205 -2.5391 -5.6596 -5.6596 -5.6596 l-1.3174 0 l0 0.43055 l1.3174
                 0 c2.885 0 5.2292 2.3477 5.2292 5.2292 c0 2.2079 -1.3762 4.0956 -3.3156 4.8612 c1.2438 0.49308 2.2852 1.4535
                 2.8556 2.7157 c0.30543 0.67712 0.46 1.3984 0.46 2.1454 c0 2.885 -2.3477 5.2292 -5.2292 5.2292 l-1.3174 0 z
                 M155.96200000000002 37.4082 l-0.000039062 0.43776 l1.3174 0 c3.8308 0 6.9512 -3.1205 6.9512 -6.9548 c0 -1.2217
                 -0.32383 -2.425 -0.93468 -3.4774 c-0.22078 -0.3827 -0.47836 -0.74332 -0.76908 -1.0782 l-0.29808 -0.26863 l0.27969
                 -0.32383 c1.1113 -1.2696 1.7222 -2.896 1.7222 -4.5776 c0 -3.8344 -3.1168 -6.9548 -6.9512 -6.9548 l-1.3174 0 l0
                 0.42688 l1.3174 0 c3.5952 0 6.5208 2.9292 6.5208 6.5244 c0 1.8804 -0.78752 3.621 -2.1785 4.8612
                 c0.61452 0.54828 1.1224 1.2107 1.4903 1.943 c0.45628 0.9126 0.68812 1.8952 0.68812 2.9182 c0 3.5989 -2.9255 6.5244
                 -6.5208 6.5244 l-1.3174 0 z M165.53000000000003 30.8872 c0 -1.6596 -0.48936 -3.2566 -1.4167 -4.622 l-0.16192
                 -0.23918 l0.16192 -0.24285 c0.93468 -1.38 1.4204 -2.9734 1.4204 -4.622 c0 -4.5484 -3.6982 -8.2464 -8.2464
                 -8.2464 l-1.3174 0 l0 0.43422 l1.3174 0 c4.3092 0 7.816 3.5069 7.816 7.816 c0 1.77 -0.60352 3.4811 -1.7001
                 4.8612 c0.23918 0.30176 0.45628 0.61824 0.64764 0.9494 c0.68444 1.1849 1.0488 2.5391 1.0488 3.9117 c0 4.3092
                 -3.5069 7.816 -7.816 7.816 l-1.3174 0 l0 0.43055 l1.3174 0 c4.5484 0 8.2464 -3.6982 8.2464 -8.2464 z M174.8948
                 25.658 l0.7838 -0.36062 l6.8152 14.701 l-0.95308 0 z M176.1128 25.118000000000002 l0.78384 -0.36062 l7.0652
                 15.242 l-0.95308 0 z M177.27960000000002 24.484 l0.78752 -0.3643 l7.3672 15.878 l-0.95308 0 z M169.2648 39.9987891
                 l-0.86476 0 l0 -27.941 l0.86476 0 l0 27.941 z M170.5969 39.9987891 l-0.86476 0 l0 -27.941 l0.86476 0 l0 27.941 z
                 M171.93280000000001 39.9987891 l-0.86476 0 l0 -27.941 l0.86476 0 l0 27.941 z M173.2648 39.9987891 l-0.86476
                 0 l0 -27.941 l0.86476 0 l0 27.941 z M181.73600000000002 28.856 l5.1704 11.146 l-0.95308 0 l-7.4996 -16.177
                 l0.4416 -0.32383 c0.79116 -0.55568 1.2732 -1.4683 1.2732 -2.4361 c0 -1.6375 -1.3321 -2.966 -2.966 -2.966
                 l-2.6017 0 l0 8.0368 l6.4252 13.862 l-0.95308 0 l-5.472 -11.805 l0 11.805 l-0.86476 0 l0 -27.941 l3.4627 0
                 c4.9716 0 9.0156 4.044 9.0156 9.0156 c0 3.2125 -1.7111 6.1636 -4.4784 7.7828 z M179.532 24.094 l0.18398
                 0.4048 c1.0856 -0.79852 1.7442 -2.0791 1.7442 -3.4333 c0 -2.3514 -1.9135 -4.2612 -4.2612 -4.2612 l-2.6017
                 0 l0 0.43055 l2.6017 0 c2.1122 0 3.8307 1.7185 3.8307 3.8307 c0 1.1886 -0.55932 2.3036 -1.4977 3.0285 z
                 M180.08700000000002 25.298000000000002 l0.18027 0.39734 c1.5456 -1.0267 2.4876 -2.7673 2.4876 -4.6292 c0
                 -3.0653 -2.4912 -5.5564 -5.5564 -5.5564 l-2.6017 0 l0 0.43055 l2.6017 0 c2.8261 0 5.126 2.2999 5.126 5.126
                 c0 1.6854 -0.85004 3.2824 -2.2374 4.232 z M180.639 26.483 l0.18402 0.39383 c2.0055 -1.2512 3.2346 -3.4444 3.2346
                 -5.814 c0 -3.7756 -3.0764 -6.852 -6.8556 -6.852 l-2.6017 0 l0 0.43055 l2.6017 0 c3.54 0 6.4212 2.8813 6.4212
                 6.4212 c0 2.2006 -1.1371 4.2428 -2.9844 5.4204 z M181.18800000000002 27.668 l0.1877 0.40112 c2.4582 -1.472
                 3.9779 -4.1216 3.9779 -6.9956 c0 -4.4932 -3.6578 -8.1508 -8.1508 -8.1508 l-2.6017 0 l0 0.42688 l2.6017 0
                 c4.254 0 7.7168 3.4627 7.7168 7.7168 c0 2.7047 -1.4241 5.2032 -3.7314 6.6016 z M200.58200000000002 12.032
                 l0.93836 0 l-11.662 27.967 l-0.93836 0 z M201.91700000000003 12.032 l0.93836 0 l-11.662 27.967 l-0.93469
                 0 z M203.257 12.032 l0.93469 0 l-11.662 27.967 l-0.93469 0 z M204.592 12.032 l0.93836 0 l-11.665 27.967
                 l-0.93469 0 z M217.638 39.9987891 l-11.143 -27.08 l-0.23918 0.57772 l10.904 26.502 l-0.93469 0 l-10.44
                 -25.376 l-0.23918 0.57772 l10.204 24.802 l-0.93469 0 l-9.7404 -23.672 l-0.23918 0.57408 l9.5012 23.098
                 l-0.93469 0 l-9.0376 -21.969 l-0.23918 0.57408 l8.8024 21.391 l-0.93469 0 l-2.0975 -5.1076 l-12.556 0
                 l-2.1306 5.1076 l-0.93836 0 l11.662 -27.967 l1.1334 0 l11.507 27.967 l-0.93469 0 z M209.53400000000002
                 34.0264 l-0.18402 -0.44896 l-11.466 0 l-0.18766 0.44896 l11.838 0 z M208.99400000000003 32.7128 l-0.1877
                 -0.44896 l-10.377 0 l-0.18766 0.44896 l10.753 0 z M208.45200000000003 31.3988 l-0.1877 -0.44896 l-9.288 0
                 l-0.18766 0.44896 l9.6633 0 z M207.912 30.0852 l-0.18398 -0.44896 l-8.2024 0 l-0.18766 0.44896 l8.5741 0
                 z M207.371 28.772 l-3.7167 -9.034 l-3.7682 9.034 l7.4848 0 z M227.09480000000002 25.658 l0.7838 -0.36062
                 l6.8152 14.701 l-0.95308 0 z M228.3128 25.118000000000002 l0.78384 -0.36062 l7.0652 15.242 l-0.95308 0 z
                 M229.47960000000003 24.484 l0.78752 -0.3643 l7.3672 15.878 l-0.95308 0 z M221.46480000000003 39.9987891
                 l-0.86476 0 l0 -27.941 l0.86476 0 l0 27.941 z M222.79690000000002 39.9987891 l-0.86476 0 l0 -27.941 l0.86476
                 0 l0 27.941 z M224.13280000000003 39.9987891 l-0.86476 0 l0 -27.941 l0.86476 0 l0 27.941 z M225.46480000000003
                 39.9987891 l-0.86476 0 l0 -27.941 l0.86476 0 l0 27.941 z M233.93600000000004 28.856 l5.1704 11.146 l-0.95308 0
                 l-7.4996 -16.177 l0.4416 -0.32383 c0.79116 -0.55568 1.2732 -1.4683 1.2732 -2.4361 c0 -1.6375 -1.3321 -2.966
                 -2.966 -2.966 l-2.6017 0 l0 8.0368 l6.4252 13.862 l-0.95308 0 l-5.472 -11.805 l0 11.805 l-0.86476 0 l0 -27.941
                 l3.4627 0 c4.9716 0 9.0156 4.044 9.0156 9.0156 c0 3.2125 -1.7111 6.1636 -4.4784 7.7828 z M231.73200000000003
                 24.094 l0.18398 0.4048 c1.0856 -0.79852 1.7442 -2.0791 1.7442 -3.4333 c0 -2.3514 -1.9135 -4.2612 -4.2612 -4.2612
                 l-2.6017 0 l0 0.43055 l2.6017 0 c2.1122 0 3.8307 1.7185 3.8307 3.8307 c0 1.1886 -0.55932 2.3036 -1.4977 3.0285
                 z M232.28700000000003 25.298000000000002 l0.18027 0.39734 c1.5456 -1.0267 2.4876 -2.7673 2.4876 -4.6292 c0 -3.0653
                 -2.4912 -5.5564 -5.5564 -5.5564 l-2.6017 0 l0 0.43055 l2.6017 0 c2.8261 0 5.126 2.2999 5.126 5.126 c0 1.6854
                 -0.85004 3.2824 -2.2374 4.232 z M232.83900000000003 26.483 l0.18402 0.39383 c2.0055 -1.2512 3.2346 -3.4444 3.2346
                 -5.814 c0 -3.7756 -3.0764 -6.852 -6.8556 -6.852 l-2.6017 0 l0 0.43055 l2.6017 0 c3.54 0 6.4212 2.8813 6.4212 6.4212
                 c0 2.2006 -1.1371 4.2428 -2.9844 5.4204 z M233.38800000000003 27.668 l0.1877 0.40112 c2.4582 -1.472 3.9779 -4.1216
                 3.9779 -6.9956 c0 -4.4932 -3.6578 -8.1508 -8.1508 -8.1508 l-2.6017 0 l0 0.42688 l2.6017 0 c4.254 0 7.7168 3.4627
                 7.7168 7.7168 c0 2.7047 -1.4241 5.2032 -3.7314 6.6016 z M238.12000000000003 12.043 l1.0009 0 l8.8576 15.19 l0 12.765
                 l-0.86476 0 l0 -12.53 z M239.66560000000004 12.043 l0.99723 0 l8.8576 15.19 l0 12.765 l-0.86476 0 l0 -12.53 z
                 M242.20840000000004 12.043 l8.8536 15.187 l0.12512 12.769 l-0.86476 0 l-0.12144 -12.53 l-8.9936 -15.426 l1.0009
                 0 z M243.75400000000002 12.043 l8.8536 15.19 l0.066252 12.766 l-0.86109 0 l-0.066252 -12.53 l-8.9936 -15.426
                 l1.0009 0 z M262.12800000000004 12.043 l1.0009 -0.000039062 l-8.9752 15.426 l0 12.53 l-0.86476 0 l0 -12.53
                 l-8.99 -15.426 l0.99723 0 l5.3248 9.1336 l5.332 -9.1336 l0.99723 0 l-5.814 9.9652 l-0.04414 -0.025742 l0.30176
                 0.5152 l6.1012 -10.454 l1.0009 0 l-6.6016 11.312 l0.26863 0.46736 l6.8776 -11.779 l1.0009 0 l-7.378 12.637
                 l0.2723 0.46736 l7.6504 -13.104 l1.0009 0 l-8.1508 13.962 l0.28703 0.48576 z">
        </path>
    </g>
</svg>